<mxfile host="app.diagrams.net" agent="Mozilla/5.0 (X11; Ubuntu; Linux x86_64; rv:133.0) Gecko/20100101 Firefox/133.0" version="26.1.1">
  <diagram name="Страница — 1" id="w6X2tV24LMAZHTV3yIhU">
    <mxGraphModel dx="1506" dy="917" grid="1" gridSize="10" guides="1" tooltips="1" connect="1" arrows="1" fold="1" page="1" pageScale="1" pageWidth="1100" pageHeight="850" math="0" shadow="0">
      <root>
        <mxCell id="0" />
        <mxCell id="1" parent="0" />
        <mxCell id="UxQvi_ueAJQSM3tB_UAR-1" value="a: Пациент" style="shape=umlActor;verticalLabelPosition=bottom;verticalAlign=top;html=1;outlineConnect=0;" vertex="1" parent="1">
          <mxGeometry x="510" y="330" width="30" height="60" as="geometry" />
        </mxCell>
        <mxCell id="UxQvi_ueAJQSM3tB_UAR-2" value="&lt;br/&gt;&lt;br/&gt;&lt;br/&gt;&#x9;&lt;br/&gt;&#x9;&lt;br/&gt;&#x9;&lt;br/&gt;&#x9;&lt;br/&gt;&lt;br/&gt;&lt;p align=&quot;center&quot;&gt;&lt;br/&gt;: Сведения о врачах&lt;/p&gt;&lt;br/&gt;&lt;br/&gt;&lt;style type=&quot;text/css&quot;&gt;td p { orphans: 0; widows: 0; background: transparent }p { line-height: 115%; margin-bottom: 0.1in; background: transparent }&lt;/style&gt;" style="rounded=0;whiteSpace=wrap;html=1;" vertex="1" parent="1">
          <mxGeometry x="260" y="200" width="120" height="60" as="geometry" />
        </mxCell>
        <mxCell id="UxQvi_ueAJQSM3tB_UAR-3" value="&lt;br/&gt;&lt;br/&gt;&lt;br/&gt;&#x9;&lt;br/&gt;&#x9;&lt;br/&gt;&#x9;&lt;br/&gt;&#x9;&lt;br/&gt;&lt;br/&gt;&lt;p align=&quot;center&quot;&gt;&lt;br/&gt;b: Врач&lt;/p&gt;&lt;br/&gt;&lt;br/&gt;&lt;style type=&quot;text/css&quot;&gt;td p { orphans: 0; widows: 0; background: transparent }p { line-height: 115%; margin-bottom: 0.1in; background: transparent }&lt;/style&gt;" style="rounded=0;whiteSpace=wrap;html=1;" vertex="1" parent="1">
          <mxGeometry x="260" y="440" width="120" height="60" as="geometry" />
        </mxCell>
        <mxCell id="UxQvi_ueAJQSM3tB_UAR-4" value="&lt;br/&gt;&lt;br/&gt;&lt;br/&gt;&#x9;&lt;br/&gt;&#x9;&lt;br/&gt;&#x9;&lt;br/&gt;&#x9;&lt;br/&gt;&lt;br/&gt;&lt;p align=&quot;center&quot;&gt;&lt;br/&gt;: Система&lt;/p&gt;&lt;br/&gt;&lt;br/&gt;&lt;style type=&quot;text/css&quot;&gt;td p { orphans: 0; widows: 0; background: transparent }p { line-height: 115%; margin-bottom: 0.1in; background: transparent }&lt;/style&gt;" style="rounded=0;whiteSpace=wrap;html=1;" vertex="1" parent="1">
          <mxGeometry x="680" y="440" width="120" height="60" as="geometry" />
        </mxCell>
        <mxCell id="UxQvi_ueAJQSM3tB_UAR-5" value="&lt;br/&gt;&lt;br/&gt;&lt;br/&gt;&#x9;&lt;br/&gt;&#x9;&lt;br/&gt;&#x9;&lt;br/&gt;&#x9;&lt;br/&gt;&lt;br/&gt;&lt;p align=&quot;center&quot;&gt;&lt;br/&gt;: Расписание&lt;/p&gt;&lt;br/&gt;&lt;br/&gt;&lt;style type=&quot;text/css&quot;&gt;td p { orphans: 0; widows: 0; background: transparent }p { line-height: 115%; margin-bottom: 0.1in; background: transparent }&lt;/style&gt;" style="rounded=0;whiteSpace=wrap;html=1;" vertex="1" parent="1">
          <mxGeometry x="680" y="200" width="120" height="60" as="geometry" />
        </mxCell>
        <mxCell id="UxQvi_ueAJQSM3tB_UAR-8" value="" style="endArrow=none;html=1;rounded=0;entryX=0;entryY=0.3333333333333333;entryDx=0;entryDy=0;entryPerimeter=0;exitX=1;exitY=0.5;exitDx=0;exitDy=0;" edge="1" parent="1" source="UxQvi_ueAJQSM3tB_UAR-2" target="UxQvi_ueAJQSM3tB_UAR-1">
          <mxGeometry width="50" height="50" relative="1" as="geometry">
            <mxPoint x="520" y="500" as="sourcePoint" />
            <mxPoint x="570" y="450" as="targetPoint" />
          </mxGeometry>
        </mxCell>
      </root>
    </mxGraphModel>
  </diagram>
</mxfile>
